<svg width="27" height="21" viewBox="0 0 27 21" fill="none" xmlns="http://www.w3.org/2000/svg">
<path d="M22.786 1.83262C21.0447 1.01794 19.183 0.425875 17.2365 0.0887451C16.9975 0.520933 16.7182 1.10224 16.5256 1.56466C14.4565 1.25349 12.4064 1.25349 10.3753 1.56466C10.1828 1.10224 9.89719 0.520933 9.656 0.0887451C7.70745 0.425875 5.84352 1.02012 4.1023 1.83693C0.590256 7.1441 -0.361803 12.3194 0.114227 17.4213C2.4436 19.1608 4.70105 20.2175 6.9204 20.909C7.46837 20.1548 7.95708 19.3532 8.3781 18.5082C7.57626 18.2036 6.80827 17.8276 6.08261 17.3911C6.27512 17.2484 6.46343 17.0993 6.64536 16.9459C11.0714 19.0161 15.8804 19.0161 20.2535 16.9459C20.4376 17.0993 20.6258 17.2484 20.8162 17.3911C20.0884 17.8297 19.3184 18.2057 18.5165 18.5104C18.9375 19.3532 19.4241 20.157 19.9742 20.9111C22.1957 20.2197 24.4552 19.163 26.7846 17.4213C27.3432 11.5069 25.8305 6.37913 22.786 1.83262ZM8.98108 14.2837C7.65244 14.2837 6.56284 13.0433 6.56284 11.5329C6.56284 10.0224 7.62917 8.77989 8.98108 8.77989C10.333 8.77989 11.4226 10.0202 11.3993 11.5329C11.4014 13.0433 10.333 14.2837 8.98108 14.2837ZM17.9178 14.2837C16.5891 14.2837 15.4995 13.0433 15.4995 11.5329C15.4995 10.0224 16.5658 8.77989 17.9178 8.77989C19.2697 8.77989 20.3593 10.0202 20.336 11.5329C20.336 13.0433 19.2697 14.2837 17.9178 14.2837Z" fill="white"/>
</svg>
