<svg width="22" height="21" viewBox="0 0 22 21" fill="none" xmlns="http://www.w3.org/2000/svg">
<path fill-rule="evenodd" clip-rule="evenodd" d="M0 10.5C0 15.6975 3.96 20.0025 9.185 20.895L9.25009 20.8442C9.24675 20.8436 9.24341 20.843 9.24007 20.8424V13.4399H6.49007V10.4999H9.24007V8.18993C9.24007 5.56493 11.0001 4.09493 13.5301 4.09493C14.3001 4.09493 15.1801 4.19993 15.9501 4.30493V6.98243H14.5201C13.2001 6.98243 12.8701 7.61243 12.8701 8.45243V10.4999H15.7851L15.2901 13.4399H12.8701V20.8424C12.8365 20.8483 12.803 20.8539 12.7694 20.8594L12.815 20.895C18.04 20.0025 22 15.6975 22 10.5C22 4.725 17.05 0 11 0C4.95 0 0 4.725 0 10.5Z" fill="white"/>
</svg>
