<svg width="31" height="21" viewBox="0 0 31 21" fill="none" xmlns="http://www.w3.org/2000/svg">
<path fill-rule="evenodd" clip-rule="evenodd" d="M27.0525 0.742971C28.3094 1.08532 29.3004 2.08792 29.6388 3.3595C30.2673 5.68259 30.2431 10.5244 30.2431 10.5244C30.2431 10.5244 30.2431 15.3418 29.6388 17.6649C29.3004 18.9364 28.3094 19.939 27.0525 20.2814C24.7562 20.8927 15.571 20.8927 15.571 20.8927C15.571 20.8927 6.41002 20.8927 4.08956 20.2569C2.83264 19.9146 1.84161 18.912 1.50321 17.6404C0.898926 15.3418 0.898926 10.5 0.898926 10.5C0.898926 10.5 0.898926 5.68259 1.50321 3.3595C1.84161 2.08792 2.85682 1.06087 4.08956 0.718517C6.38585 0.107178 15.571 0.107178 15.571 0.107178C15.571 0.107178 24.7562 0.107178 27.0525 0.742971ZM20.4618 10.5L13.1257 14.7793V6.22058L20.4618 10.5Z" fill="white"/>
</svg>
