<svg width="16" height="26" viewBox="0 0 16 26" fill="none" xmlns="http://www.w3.org/2000/svg">
<path d="M4.10816 25.9658C4.35062 26.1008 4.60638 25.8085 4.45793 25.5665C3.6522 24.2529 2.88922 22.0426 4.10483 19.196C6.13202 14.449 7.36556 11.9904 7.36556 11.9904C7.36556 11.9904 8.02167 14.8595 9.80024 17.4106C11.512 19.8659 12.4489 22.9538 10.9385 25.5262C10.7967 25.7677 11.0467 26.0525 11.2875 25.9234C13.1573 24.9216 15.2544 22.912 15.491 18.9129C15.5783 17.6909 15.4474 15.9801 14.7932 13.8212C13.9519 11.085 12.9178 9.80823 12.3194 9.25993C12.1405 9.0959 11.8621 9.24128 11.8768 9.4899C12.0511 12.4423 10.9908 13.1915 10.3872 11.503C10.1462 10.8286 10.0056 9.66221 10.0056 8.24173C10.0056 5.87688 9.35061 3.44248 7.90653 1.46427C7.531 0.949834 7.09159 0.469132 6.58745 0.059207C6.40493 -0.0892308 6.14037 0.0599717 6.15708 0.301364C6.26797 1.90453 6.16751 6.49909 2.31929 11.9881C-1.1699 17.0799 0.182151 20.9903 0.661916 22.0494C1.57918 24.0784 2.85864 25.2699 4.10816 25.9658Z" fill="white"/>
</svg>
