<svg width="30" height="30" viewBox="0 0 30 30" fill="none" xmlns="http://www.w3.org/2000/svg">
<path d="M29.7637 20.8465C29.7637 26.194 26.5758 29.3819 21.2283 29.3819H19.4801C18.6721 29.3819 18.011 28.7208 18.011 27.9128V19.4361C18.011 19.0395 18.3342 18.7016 18.7308 18.7016L21.3164 18.6575C21.5221 18.6428 21.6984 18.4959 21.7425 18.2902L22.2567 15.4843C22.3007 15.2198 22.0951 14.9701 21.8159 14.9701L18.6868 15.0142C18.2754 15.0142 17.9522 14.6909 17.9375 14.2943L17.8788 10.695C17.8788 10.46 18.0697 10.2543 18.3195 10.2543L21.8453 10.1955C22.0951 10.1955 22.286 10.0046 22.286 9.75481L22.2273 6.22895C22.2273 5.9792 22.0363 5.78823 21.7865 5.78823L17.82 5.84701C15.3813 5.89109 13.4421 7.88904 13.4862 10.3277L13.5596 14.3677C13.5743 14.7791 13.2511 15.1023 12.8398 15.117L11.0768 15.1464C10.8271 15.1464 10.6361 15.3374 10.6361 15.5871L10.6802 18.3784C10.6802 18.6281 10.8712 18.8191 11.1209 18.8191L12.8838 18.7897C13.2952 18.7897 13.6184 19.1129 13.6331 19.5096L13.7653 27.8834C13.78 28.7061 13.1189 29.3819 12.2962 29.3819H8.91728C3.56977 29.3819 0.381836 26.194 0.381836 20.8318V8.53544C0.381836 3.18794 3.56977 0 8.91728 0H21.2283C26.5758 0 29.7637 3.18794 29.7637 8.53544V20.8465Z" fill="#E2E2E2"/>
</svg>
