<svg width="33" height="32" viewBox="0 0 33 32" fill="none" xmlns="http://www.w3.org/2000/svg">
<g clip-path="url(#clip0_357_84)">
<path d="M27.2633 5.63708C25.1919 4.66791 22.977 3.96356 20.6614 3.5625C20.3771 4.07665 20.0448 4.76819 19.8158 5.3183C17.3542 4.94812 14.9154 4.94812 12.4991 5.3183C12.2701 4.76819 11.9303 4.07665 11.6434 3.5625C9.32533 3.96356 7.10792 4.6705 5.03651 5.64221C0.85844 11.9558 -0.274165 18.1126 0.292139 24.182C3.06325 26.2514 5.7488 27.5085 8.38902 28.3311C9.0409 27.4339 9.6223 26.4802 10.1232 25.475C9.16925 25.1126 8.25562 24.6653 7.39235 24.146C7.62137 23.9763 7.84539 23.7989 8.06182 23.6164C13.3272 26.0791 19.0481 26.0791 24.2506 23.6164C24.4695 23.7989 24.6935 23.9763 24.92 24.146C24.0542 24.6678 23.1381 25.1151 22.1842 25.4776C22.685 26.4802 23.2639 27.4365 23.9183 28.3336C26.5611 27.511 29.2491 26.254 32.0202 24.182C32.6847 17.146 30.8851 11.0458 27.2633 5.63708ZM10.8405 20.4494C9.25988 20.4494 7.96365 18.9738 7.96365 17.1769C7.96365 15.38 9.2322 13.9018 10.8405 13.9018C12.4488 13.9018 13.745 15.3774 13.7173 17.1769C13.7198 18.9738 12.4488 20.4494 10.8405 20.4494ZM21.4719 20.4494C19.8913 20.4494 18.5951 18.9738 18.5951 17.1769C18.5951 15.38 19.8636 13.9018 21.4719 13.9018C23.0802 13.9018 24.3764 15.3774 24.3487 17.1769C24.3487 18.9738 23.0802 20.4494 21.4719 20.4494Z" fill="#E2E2E2"/>
</g>
<defs>
<clipPath id="clip0_357_84">
<rect width="32" height="32" fill="white" transform="translate(0.15625)"/>
</clipPath>
</defs>
</svg>
