<svg width="361" height="74" viewBox="0 0 361 74" fill="none" xmlns="http://www.w3.org/2000/svg">
<path fill-rule="evenodd" clip-rule="evenodd" d="M139.26 32.8314C139.157 33.0655 138.751 33.7299 138.719 33.8799C138.67 34.1182 138.773 34.3079 138.862 34.513C139.003 34.8367 138.991 34.7883 139.064 35.1098C139.471 35.7421 139.932 37.3715 140.408 37.9351C140.594 37.8002 140.688 37.6099 140.813 37.4335L141.936 35.9245C141.723 36.7774 141.419 37.6552 141.147 38.5123C140.934 39.1838 141.003 39.2073 141.318 39.7262C142.607 41.8479 142.887 42.3333 144.384 44.2608C144.429 44.3186 144.551 44.4863 144.578 44.5119C144.781 44.7016 144.526 44.5879 144.833 44.6517C145.123 44.0776 146.183 39.6447 146.371 39.31C146.569 38.958 147.386 38.7785 147.919 38.6543C150.135 38.1372 153.121 38.5632 155.319 39.2896C155.571 39.3727 155.528 39.3349 155.654 39.4992C155.876 39.8176 156.351 44.1569 156.388 44.8107C156.803 44.7182 157.059 44.3941 157.339 44.1516L158.879 42.7393C159.11 42.4862 159.377 42.257 159.638 42.0228C162.067 39.8392 165.154 37.4271 167.707 35.1947C168.044 34.9005 169.148 34.1371 169.282 33.7515C168.983 33.6495 168.722 33.4825 168.438 33.3296C166.65 32.3679 164.286 31.7322 162.313 31.2446C161.863 31.1932 161.032 31.169 160.697 30.9488C160.183 31.004 159.037 30.8544 158.404 30.8404C156.853 30.8064 155.419 30.9446 153.916 31.2151C153.285 31.3284 152.573 31.5675 151.997 31.6351L153.92 29.5199C154.636 28.8868 155.267 28.233 156.079 27.6219C156.812 27.0692 157.61 26.4664 158.517 26.006C160.966 24.7629 162.133 24.8388 164.739 26.0524C169.494 28.267 170.086 32.0725 170.501 32.4329L172.104 30.5171C172.497 30.0037 176.295 24.1831 176.289 24.046C175.833 22.9551 175.325 21.9141 174.849 20.8112L171.306 12.8455C171.127 12.4568 170.767 11.5189 170.575 11.2783C169.609 11.2923 166.123 12.3204 165.088 12.6589C163.523 13.1703 163.362 13.0562 162.906 13.8714C162.612 14.3983 162.45 14.2982 161.814 14.4689C161.429 14.572 160.893 14.7412 160.513 14.7862C160.584 14.7265 160.638 14.6517 160.71 14.5599L160.941 14.2068C160.521 14.3125 159.502 14.7888 159.089 14.9845C156.356 16.2831 153.608 17.8042 151.154 19.5976C148.131 21.8072 145.725 23.9153 143.308 26.8736C141.257 29.3854 140.983 30.0151 139.26 32.8306V32.8314Z" fill="#E2E2E2"/>
<path fill-rule="evenodd" clip-rule="evenodd" d="M167.411 51.4178L168.09 51.0068L168.057 51.3683C167.842 52.1713 167.971 52.0535 168.566 52.8901C170.183 52.8093 171.888 52.5585 173.525 52.4368C177.917 52.1097 182.17 51.9171 186.582 51.8688C187.631 51.8574 187.824 51.4038 188.646 51.1613L188.825 51.8068C189.203 51.936 192.566 51.8925 193.293 51.9065C194.802 51.9356 196.267 52.0202 197.749 52.0674C197.543 52.7515 196.274 55.1591 195.855 55.8934C193.776 59.5421 191.424 62.8234 188.107 65.3299C184.237 68.2538 180.127 69.5743 174.999 69.2544C173.816 69.1804 171.146 68.7634 170.206 68.3694C168.597 68.0332 166.333 67.0168 165.001 66.3479C164.194 65.9426 163.464 65.5486 162.717 65.0942L160.541 63.7023C160.868 64.5216 163.541 66.973 164.243 67.5528L165.576 68.5904C165.585 68.5983 165.611 68.6425 165.618 68.6293C165.625 68.6161 165.647 68.6553 165.66 68.6689C165.966 68.8227 166.277 69.0682 166.581 69.2725C169.925 71.5245 174.816 73.154 178.84 73.6832C181.6 74.0462 181.738 74.1625 184.364 73.7421C187.734 73.202 190.853 72.2312 193.583 70.879C194.939 70.2074 196.227 69.4701 197.392 68.6402C197.997 68.21 198.576 67.801 199.125 67.3492C199.686 66.8869 200.222 66.3732 200.746 65.966C200.56 65.4946 199.942 65.0444 199.777 64.6621C200.647 64.6791 200.635 64.8457 201.161 64.3686L202.6 63.2309C202.765 63.1301 202.927 63.0315 203.11 62.9257C204.457 62.1503 204.499 61.8096 205.553 60.2775C206.006 59.6195 206.437 58.9419 206.838 58.2435C208.04 56.1547 210.404 51.2708 210.928 48.8066L209.941 49.8404C209.76 50.0757 209.681 50.1192 209.48 50.3375C209.266 50.5705 209.281 50.6786 208.998 50.8436L210.339 48.3212C211.297 46.5131 211.272 47.8003 211.733 45.9472C212.248 43.8755 212.66 41.653 212.869 39.4354L199.319 42.9852C199 43.1287 198.575 44.0114 198.235 44.3159C198.07 44.1727 197.709 43.8626 197.636 43.6333L197.585 43.3856C197.583 43.3595 197.579 43.3493 197.571 43.3327C195.055 43.8834 192.222 44.3098 189.531 44.6256C188.146 44.7884 186.656 44.9565 185.251 45.0169C184.809 45.0358 183.424 45.0139 183.141 45.1729C183.001 45.2522 183.091 45.2643 182.773 45.3848C182.622 45.4419 182.481 45.4857 182.335 45.5382C182.026 45.65 181.774 45.7546 181.46 45.8158L181.457 45.1673C180.705 44.9988 176.636 45.0951 175.517 44.5818C175.464 44.4156 175.524 44.3805 175.649 44.172C175.735 44.0284 175.821 43.8974 175.905 43.7599L177.391 41.4082C178.85 39.2533 180.172 37.4625 181.866 35.5581C182.103 35.2914 182.201 35.1381 182.488 34.8544C183.654 33.705 183.343 32.4207 183.439 31.9735C184.125 32.2032 183.896 32.2825 184.57 31.9195C185.37 31.4889 185.986 31.2997 186.629 30.7331C188.155 29.3869 189.371 28.4317 190.994 27.206C191.645 26.7149 192.234 26.3262 192.904 25.8715L196.813 23.434C197.453 23.0688 198.186 22.7058 198.889 22.3232L198.73 20.9596C201.101 21.255 201.017 21.2002 202.876 20.4282C206.356 18.9838 208.637 18.1456 212.311 17.2447C212.895 17.1016 213.813 16.9822 214.364 16.796C213.568 16.1165 210.994 15.8619 209.737 15.8102C206.63 15.6829 202.608 16.3337 199.563 16.949C198.076 17.2496 196.327 17.6149 194.975 18.044C193.033 18.6604 189.166 20.7507 187.389 21.8314C181.479 25.4239 176.511 29.5988 171.61 34.3751C171.104 34.8676 170.673 35.3171 170.182 35.8232C168.823 37.2246 166.99 39.1543 165.745 40.6055L162.178 44.8587C160.946 46.3261 159.672 48.1486 158.565 49.6357C156.466 49.4087 153.5 48.1973 152.158 47.2224C151.859 47.0706 151.591 46.8693 151.325 46.688C151.102 46.5354 150.861 46.2997 150.592 46.2015L150.578 48.0179C150.882 50.084 151.075 51.5247 151.947 53.2195C152.591 54.4701 153.84 56.1094 155.482 56.381C155.137 55.028 155.429 54.9366 156.922 54.6556L162.899 53.6225C163.44 53.5405 165.673 53.3018 165.967 53.1802C166.137 53.088 166.13 53.0393 166.26 52.7005C166.665 51.6512 166.554 52.1396 167.411 51.4185L167.411 51.4178Z" fill="#E2E2E2"/>
<path fill-rule="evenodd" clip-rule="evenodd" d="M179.22 15.0668L177.626 17.0887C177.618 17.0997 177.602 17.1231 177.596 17.1322C177.589 17.1409 177.574 17.1601 177.566 17.1756L176.873 17.8793C176.61 18.1573 176.514 18.433 176.382 18.9041C176.773 19.1685 176.97 19.4336 177.656 19.5598C179.952 19.9915 184.125 16.773 185.96 15.0147C186.129 14.8526 186.152 14.8001 186.334 14.654C186.829 14.2555 187.274 13.7667 187.736 13.3255C188.227 12.856 188.635 12.4583 189.103 11.9631L190.276 10.7763C190.989 10.0413 190.976 10.0103 191.856 9.25863L192.533 8.60744C193.822 7.56191 194.849 6.55831 196.354 5.56907C197.791 4.62401 201.853 2.1152 204.283 2.80983C204.709 2.85289 204.433 2.85289 204.503 2.72938C204.024 2.24514 203.92 1.9694 203.196 1.45684C199.682 -1.03082 195.595 0.803386 192.61 3.07801L191.507 3.96943C191.381 4.07217 191.286 4.16509 191.15 4.27425C190.857 4.50957 190.752 4.64668 190.473 4.91901C189.21 6.15076 187.667 7.86862 186.576 8.91981C186.215 9.26694 185.591 9.8898 185.261 10.2581C185.052 10.49 184.853 10.6433 184.636 10.8881C184.42 11.1321 184.216 11.3304 183.986 11.5665C183.529 12.0337 183.107 12.4402 182.664 12.9006L179.988 15.5427C179.9 15.5926 179.964 15.5511 179.862 15.6341C179.795 15.6889 179.797 15.7021 179.717 15.763L182.167 11.8154C184.152 8.4114 185.18 4.60022 187.932 2.30897C188.785 1.59848 189.672 1.31406 190.876 1.20377C190.859 1.1913 190.751 1.08025 190.645 1.0032C189.696 0.196769 189.752 -0.00984346 188.274 0.000354954C186.618 0.0120642 184.825 1.90821 184.536 3.12145C182.86 10.1746 179.367 14.6423 179.22 15.0657L179.22 15.0668Z" fill="#E2E2E2"/>
<path d="M251.765 34.8447L263.958 47.1305V59.4163L257.827 65.5241H245.635L239.573 59.4163V49.1664H241.594V51.2024H243.614V53.2383H245.635V55.3444H247.655V57.3804L251.765 61.4523L255.806 57.3804V51.2024L249.675 45.0946L243.614 38.9166V36.8806H241.594V34.8447H239.573V22.5589L245.635 16.3809H257.827L263.958 22.5589V32.8088H261.868L259.847 30.7728L255.806 26.6307V24.5948L251.765 20.5229L247.655 24.5948V30.7728L249.675 32.8088L251.765 34.8447Z" fill="#E2E2E2"/>
<path d="M294.137 20.5229L296.157 22.5589V65.5241H288.006V57.3804H285.985V55.3444H283.965V53.2383H281.944V51.2024H279.924V65.5241H271.842V22.5589L277.904 16.3809H290.096L294.137 20.5229ZM288.075 47.1305V24.5948L284.034 20.5229L279.924 24.5948V40.9525H282.014V43.0586H284.034V45.0946H286.055V47.1305H288.075Z" fill="#E2E2E2"/>
<path d="M316.823 20.5229L312.713 24.5948V57.3804L316.823 61.4523L320.864 57.3804V40.9525H322.885V43.0586H324.905V45.0946H326.925V47.1305H328.946V59.4163H326.925V61.4523H324.905V63.4882H322.885V65.5241H310.692V63.4882H308.672V61.4523H306.652V59.4163H304.631V22.5589L306.652 20.5229L310.692 16.3809H322.885L328.946 22.5589V24.5948H320.864L316.823 20.5229Z" fill="#E2E2E2"/>
<path d="M358.363 20.5229L360.384 22.5589V65.5241H352.232V57.3804H350.212V55.3444H348.192V53.2383H346.171V51.2024H344.151V65.5241H336.069V22.5589L342.13 16.3809H354.323L358.363 20.5229ZM352.302 47.1305V24.5948L348.261 20.5229L344.151 24.5948V40.9525H346.241V43.0586H348.261V45.0946H350.282V47.1305H352.302Z" fill="#E2E2E2"/>
<path d="M12.0686 20.5229L7.99974 24.5948V57.3804L12.0686 61.4523L16.0684 57.3804H24.0682V59.4163H22.0683V61.4523H20.0683V63.4882H18.0684V65.5241H5.99981V63.4882H3.99987V61.4523H1.99994V59.4163H0V22.5589L5.99981 16.3809H18.0684L24.0682 22.5589V24.5948H16.0684L12.0686 20.5229Z" fill="#E2E2E2"/>
<path d="M47.5631 16.3809L53.6319 22.5589V59.4163L47.5631 65.5241H35.4945L29.4947 59.4163V40.9525H31.4947V43.0586H33.4946V45.0946H35.4945V47.1305H37.4945V57.3804L41.5633 61.4523L45.5632 57.3804V24.5948L41.5633 20.5229L37.4945 24.5948V40.9525H35.4945V38.9166H33.4946V36.8806H31.4947V34.8447H29.4947V22.5589L35.4945 16.3809H47.5631Z" fill="#E2E2E2"/>
<path d="M84.3065 22.5589H86.3065V59.4163L80.3067 65.5241H62.2383V16.3809H80.3067V18.487H82.3066V20.5229H84.3065V22.5589ZM78.3067 57.3804V24.5948H70.238V57.3804H78.3067Z" fill="#E2E2E2"/>
<path d="M118.763 24.5948H102.694V32.8088H118.763V40.9525H102.694V57.3804H118.763V65.5241H94.6947V22.5589H96.6946V20.5229H98.6946V18.487H100.694V16.3809H118.763V24.5948Z" fill="#E2E2E2"/>
</svg>
