<svg width="163" height="43" viewBox="0 0 163 43" fill="none" xmlns="http://www.w3.org/2000/svg">
<g filter="url(#filter0_d_357_178)">
<path fill-rule="evenodd" clip-rule="evenodd" d="M64.3494 19.7563C64.3063 19.8544 64.1362 20.1328 64.1231 20.1956C64.1023 20.2955 64.1454 20.3749 64.1829 20.4608C64.2419 20.5965 64.2367 20.5762 64.2673 20.7109C64.438 20.9758 64.6311 21.6586 64.8305 21.8947C64.9085 21.8382 64.9481 21.7584 65.0003 21.6845L65.471 21.0523C65.3816 21.4096 65.254 21.7774 65.1402 22.1365C65.0511 22.4179 65.0799 22.4277 65.2119 22.6452C65.7519 23.5342 65.8694 23.7375 66.4964 24.5451C66.5152 24.5694 66.5663 24.6396 66.5779 24.6504C66.6627 24.7298 66.5562 24.6822 66.6846 24.709C66.8063 24.4684 67.2504 22.611 67.3292 22.4708C67.4121 22.3233 67.7543 22.2481 67.9776 22.196C68.9061 21.9794 70.1573 22.1579 71.0784 22.4622C71.184 22.4971 71.166 22.4812 71.2187 22.5501C71.3117 22.6835 71.5105 24.5016 71.5262 24.7756C71.7001 24.7368 71.8074 24.601 71.9248 24.4994L72.5699 23.9077C72.6666 23.8016 72.7785 23.7056 72.8877 23.6074C73.9055 22.6925 75.1993 21.6818 76.269 20.7465C76.41 20.6232 76.8728 20.3034 76.9286 20.1418C76.8035 20.0991 76.6939 20.0291 76.5752 19.965C75.826 19.5621 74.8353 19.2957 74.0088 19.0914C73.8202 19.0699 73.4722 19.0597 73.3318 18.9675C73.1164 18.9906 72.6362 18.9279 72.371 18.922C71.721 18.9078 71.1202 18.9657 70.4903 19.079C70.2262 19.1265 69.9275 19.2267 69.6864 19.255L70.4922 18.3688C70.7921 18.1035 71.0566 17.8296 71.3965 17.5735C71.7039 17.3419 72.038 17.0894 72.4183 16.8964C73.4445 16.3756 73.9335 16.4074 75.0252 16.9159C77.0174 17.8438 77.2656 19.4383 77.4394 19.5893L78.1112 18.7866C78.2758 18.5715 79.867 16.1327 79.8647 16.0752C79.6737 15.6181 79.4607 15.182 79.2613 14.7198L77.7766 11.3822C77.7016 11.2194 77.5509 10.8264 77.4704 10.7256C77.0657 10.7314 75.6049 11.1622 75.1713 11.304C74.5159 11.5183 74.4482 11.4705 74.2573 11.8121C74.1339 12.0328 74.066 11.9909 73.7995 12.0624C73.6385 12.1056 73.4139 12.1765 73.2544 12.1954C73.2843 12.1704 73.3071 12.139 73.337 12.1006L73.4337 11.9526C73.2579 11.9969 72.8307 12.1965 72.6579 12.2785C71.5126 12.8226 70.3613 13.4599 69.3333 14.2113C68.0665 15.1372 67.0582 16.0204 66.0458 17.26C65.1861 18.3124 65.0714 18.5762 64.3494 19.7559V19.7563Z" fill="url(#paint0_linear_357_178)"/>
<path fill-rule="evenodd" clip-rule="evenodd" d="M76.1449 27.5439L76.4295 27.3717L76.4157 27.5232C76.3257 27.8597 76.3796 27.8103 76.6287 28.1608C77.3066 28.127 78.021 28.0219 78.7067 27.9709C80.547 27.8339 82.3289 27.7531 84.1774 27.7329C84.6171 27.7281 84.6978 27.5381 85.0423 27.4365L85.1174 27.7069C85.2759 27.7611 86.685 27.7429 86.9893 27.7487C87.6216 27.7609 88.2355 27.7963 88.8563 27.8161C88.7701 28.1027 88.2383 29.1115 88.0631 29.4192C87.192 30.948 86.2065 32.3228 84.8167 33.3731C83.1951 34.5982 81.473 35.1515 79.3243 35.0174C78.8284 34.9864 77.7098 34.8117 77.3159 34.6466C76.6417 34.5058 75.6934 34.0799 75.1354 33.7996C74.7972 33.6298 74.4911 33.4647 74.178 33.2743L73.2663 32.6911C73.4033 33.0344 74.5235 34.0615 74.8176 34.3045L75.3761 34.7392C75.38 34.7425 75.391 34.761 75.3938 34.7555C75.3967 34.75 75.4058 34.7664 75.4114 34.7721C75.5396 34.8365 75.67 34.9394 75.7972 35.025C77.1982 35.9686 79.2477 36.6513 80.9335 36.8731C82.0903 37.0252 82.1479 37.0739 83.2481 36.8978C84.6601 36.6714 85.9671 36.2647 87.1112 35.6981C87.6792 35.4167 88.2187 35.1078 88.7071 34.7601C88.9605 34.5798 89.2031 34.4084 89.433 34.2192C89.6682 34.0254 89.8925 33.8102 90.1123 33.6396C90.0344 33.4421 89.7752 33.2534 89.7064 33.0933C90.0707 33.1004 90.0659 33.1702 90.2861 32.9703L90.8891 32.4936C90.9584 32.4513 91.026 32.41 91.1027 32.3657C91.6672 32.0408 91.6847 31.8981 92.1265 31.2561C92.3163 30.9804 92.4967 30.6965 92.6649 30.4039C93.1684 29.5287 94.1591 27.4824 94.3783 26.4498L93.9651 26.883C93.8891 26.9816 93.8559 26.9998 93.7718 27.0913C93.6823 27.1889 93.6883 27.2342 93.5699 27.3034L94.1317 26.2465C94.5329 25.4889 94.5228 26.0282 94.7159 25.2518C94.9317 24.3837 95.1043 23.4525 95.1918 22.5233L89.5142 24.0107C89.3805 24.0708 89.2025 24.4407 89.0602 24.5682C88.9912 24.5083 88.8397 24.3783 88.809 24.2823L88.7876 24.1784C88.787 24.1675 88.7851 24.1632 88.7819 24.1563C87.7276 24.387 86.5406 24.5657 85.4131 24.698C84.8328 24.7662 84.2084 24.8367 83.6197 24.862C83.4345 24.8699 82.8542 24.8607 82.736 24.9273C82.6771 24.9606 82.7148 24.9656 82.5817 25.0161C82.5185 25.04 82.4592 25.0584 82.3981 25.0804C82.2685 25.1272 82.1632 25.1711 82.0314 25.1967L82.0303 24.925C81.715 24.8544 80.0102 24.8947 79.5413 24.6797C79.5193 24.61 79.5441 24.5953 79.5967 24.5079C79.6329 24.4478 79.6687 24.3929 79.704 24.3353L80.3266 23.3499C80.9379 22.447 81.4919 21.6967 82.2017 20.8987C82.3011 20.787 82.3417 20.7228 82.4623 20.6039C82.9506 20.1223 82.8203 19.5842 82.8607 19.3968C83.1482 19.4931 83.0523 19.5263 83.3347 19.3742C83.6699 19.1938 83.9278 19.1145 84.1971 18.8771C84.8366 18.313 85.346 17.9128 86.0263 17.3992C86.2988 17.1935 86.5455 17.0306 86.8264 16.8401L88.4645 15.8188C88.7324 15.6658 89.0398 15.5137 89.3341 15.3534L89.2673 14.782C90.2611 14.9058 90.2258 14.8828 91.0049 14.5593C92.4628 13.9541 93.4186 13.603 94.9579 13.2255C95.2025 13.1655 95.5874 13.1155 95.8182 13.0375C95.4847 12.7528 94.4062 12.6461 93.8795 12.6244C92.5776 12.5711 90.8924 12.8438 89.6166 13.1016C88.9934 13.2276 88.2606 13.3806 87.6942 13.5604C86.8806 13.8187 85.2604 14.6945 84.5156 15.1473C82.0394 16.6525 79.9577 18.4018 77.9042 20.4031C77.6924 20.6094 77.5118 20.7978 77.3061 21.0098C76.7367 21.597 75.9685 22.4056 75.4468 23.0136L73.9525 24.7957C73.4359 25.4105 72.9023 26.1741 72.4384 26.7972C71.5589 26.7021 70.3164 26.1946 69.7538 25.7861C69.6287 25.7225 69.5164 25.6381 69.405 25.5621C69.3114 25.4982 69.2106 25.3994 69.0978 25.3583L69.0919 26.1194C69.2192 26.9851 69.3002 27.5887 69.6658 28.2988C69.9355 28.8228 70.4587 29.5097 71.1468 29.6235C71.0022 29.0566 71.1245 29.0183 71.7501 28.9006L74.2543 28.4677C74.4813 28.4334 75.4169 28.3333 75.5399 28.2824C75.6111 28.2438 75.6081 28.2233 75.6629 28.0814C75.8325 27.6417 75.7857 27.8464 76.1451 27.5442L76.1449 27.5439Z" fill="url(#paint1_linear_357_178)"/>
<path fill-rule="evenodd" clip-rule="evenodd" d="M81.0926 12.313L80.4249 13.1601C80.4216 13.1647 80.4148 13.1745 80.4122 13.1783C80.4095 13.182 80.403 13.1901 80.3996 13.1965L80.1095 13.4914C79.999 13.6079 79.9588 13.7234 79.9036 13.9208C80.0675 14.0315 80.1498 14.1426 80.4372 14.1955C81.3993 14.3764 83.1481 13.0278 83.9167 12.2911C83.9876 12.2232 83.9972 12.2012 84.0733 12.14C84.2808 11.973 84.4672 11.7682 84.6608 11.5834C84.8669 11.3866 85.0376 11.22 85.2336 11.0125L85.7251 10.5152C86.0239 10.2073 86.0184 10.1943 86.3873 9.87934L86.6707 9.6065C87.2111 9.16842 87.6411 8.74792 88.2717 8.33343C88.8741 7.93745 90.5759 6.88627 91.5942 7.17731C91.7724 7.19535 91.6568 7.19535 91.6861 7.1436C91.4856 6.94071 91.4419 6.82518 91.1385 6.61041C89.6664 5.56809 87.9538 6.33662 86.703 7.28968L86.2409 7.66318C86.1882 7.70623 86.1482 7.74516 86.0913 7.7909C85.9687 7.8895 85.9245 7.94695 85.8076 8.06105C85.2783 8.57715 84.632 9.29693 84.1748 9.73738C84.0238 9.88282 83.7623 10.1438 83.6237 10.2981C83.5365 10.3953 83.4528 10.4595 83.3621 10.5621C83.2717 10.6643 83.1863 10.7474 83.0896 10.8463C82.8982 11.0421 82.7213 11.2124 82.536 11.4053L81.4143 12.5124C81.3776 12.5333 81.4044 12.5159 81.3616 12.5507C81.3336 12.5736 81.3344 12.5792 81.3012 12.6046L82.3274 10.9506C83.1594 9.52436 83.5898 7.92748 84.7431 6.96745C85.1006 6.66976 85.4722 6.55059 85.9766 6.50438C85.9695 6.49915 85.9242 6.45262 85.8799 6.42034C85.4822 6.08245 85.5058 5.99588 84.8862 6.00015C84.1927 6.00505 83.4411 6.79954 83.3203 7.30788C82.6179 10.2631 81.1543 12.1351 81.0929 12.3125L81.0926 12.313Z" fill="url(#paint2_linear_357_178)"/>
<path d="M111.489 20.5999L116.598 25.7477V30.8954L114.029 33.4546H108.92L106.381 30.8954V26.6007H107.227V27.4538H108.074V28.3068H108.92V29.1893H109.767V30.0424L111.489 31.7485L113.182 30.0424V27.4538L110.613 24.8946L108.074 22.3061V21.453H107.227V20.5999H106.381V15.4522L108.92 12.8636H114.029L116.598 15.4522V19.7469H115.722L114.875 18.8938L113.182 17.1583V16.3053L111.489 14.5992L109.767 16.3053V18.8938L110.613 19.7469L111.489 20.5999Z" fill="url(#paint3_linear_357_178)"/>
<path d="M129.243 14.5992L130.089 15.4522V33.4546H126.674V30.0424H125.827V29.1893H124.981V28.3068H124.134V27.4538H123.288V33.4546H119.901V15.4522L122.441 12.8636H127.55L129.243 14.5992ZM126.703 25.7477V16.3053L125.01 14.5992L123.288 16.3053V23.1591H124.163V24.0416H125.01V24.8946H125.856V25.7477H126.703Z" fill="url(#paint4_linear_357_178)"/>
<path d="M138.748 14.5992L137.026 16.3053V30.0424L138.748 31.7485L140.441 30.0424V23.1591H141.288V24.0416H142.135V24.8946H142.981V25.7477H143.828V30.8954H142.981V31.7485H142.135V32.6015H141.288V33.4546H136.179V32.6015H135.333V31.7485H134.486V30.8954H133.64V15.4522L134.486 14.5992L136.179 12.8636H141.288L143.828 15.4522V16.3053H140.441L138.748 14.5992Z" fill="url(#paint5_linear_357_178)"/>
<path d="M156.154 14.5992L157 15.4522V33.4546H153.585V30.0424H152.738V29.1893H151.892V28.3068H151.045V27.4538H150.198V33.4546H146.812V15.4522L149.352 12.8636H154.46L156.154 14.5992ZM153.614 25.7477V16.3053L151.921 14.5992L150.198 16.3053V23.1591H151.074V24.0416H151.921V24.8946H152.767V25.7477H153.614Z" fill="url(#paint6_linear_357_178)"/>
<path d="M11.0567 14.5992L9.35187 16.3053V30.0423L11.0567 31.7485L12.7326 30.0423H16.0845V30.8954H15.2465V31.7485H14.4086V32.6015H13.5706V33.4546H8.51391V32.6015H7.67594V31.7485H6.83797V30.8954H6V15.4522L8.51391 12.8636H13.5706L16.0845 15.4522V16.3053H12.7326L11.0567 14.5992Z" fill="url(#paint7_linear_357_178)"/>
<path d="M25.9288 12.8636L28.4716 15.4522V30.8954L25.9288 33.4546H20.8721L18.3582 30.8954V23.1591H19.1962V24.0416H20.0342V24.8946H20.8721V25.7477H21.7101V30.0423L23.4149 31.7485L25.0909 30.0423V16.3053L23.4149 14.5992L21.7101 16.3053V23.1591H20.8721V22.3061H20.0342V21.453H19.1962V20.5999H18.3582V15.4522L20.8721 12.8636H25.9288Z" fill="url(#paint8_linear_357_178)"/>
<path d="M41.3242 15.4522H42.1622V30.8954L39.6483 33.4546H32.0777V12.8636H39.6483V13.7461H40.4863V14.5992H41.3242V15.4522ZM38.8103 30.0423V16.3053H35.4296V30.0423H38.8103Z" fill="url(#paint9_linear_357_178)"/>
<path d="M55.7614 16.3053H49.0287V19.7469H55.7614V23.1591H49.0287V30.0423H55.7614V33.4546H45.6768V15.4522H46.5148V14.5992H47.3528V13.7461H48.1908V12.8636H55.7614V16.3053Z" fill="url(#paint10_linear_357_178)"/>
</g>
<defs>
<filter id="filter0_d_357_178" x="0" y="0" width="163" height="43.01" filterUnits="userSpaceOnUse" color-interpolation-filters="sRGB">
<feFlood flood-opacity="0" result="BackgroundImageFix"/>
<feColorMatrix in="SourceAlpha" type="matrix" values="0 0 0 0 0 0 0 0 0 0 0 0 0 0 0 0 0 0 127 0" result="hardAlpha"/>
<feOffset/>
<feGaussianBlur stdDeviation="3"/>
<feComposite in2="hardAlpha" operator="out"/>
<feColorMatrix type="matrix" values="0 0 0 0 0 0 0 0 0 0 0 0 0 0 0 0 0 0 1 0"/>
<feBlend mode="normal" in2="BackgroundImageFix" result="effect1_dropShadow_357_178"/>
<feBlend mode="normal" in="SourceGraphic" in2="effect1_dropShadow_357_178" result="shape"/>
</filter>
<linearGradient id="paint0_linear_357_178" x1="71.9912" y1="10.7256" x2="71.9912" y2="24.7756" gradientUnits="userSpaceOnUse">
<stop stop-color="#A18B3D"/>
<stop offset="0.494792" stop-color="#D9BD69"/>
<stop offset="1" stop-color="#A18B3D"/>
</linearGradient>
<linearGradient id="paint1_linear_357_178" x1="82.455" y1="12.6177" x2="82.455" y2="37.01" gradientUnits="userSpaceOnUse">
<stop stop-color="#A18B3D"/>
<stop offset="0.494792" stop-color="#D9BD69"/>
<stop offset="1" stop-color="#A18B3D"/>
</linearGradient>
<linearGradient id="paint2_linear_357_178" x1="85.7999" y1="6" x2="85.7999" y2="14.212" gradientUnits="userSpaceOnUse">
<stop stop-color="#A18B3D"/>
<stop offset="0.494792" stop-color="#D9BD69"/>
<stop offset="1" stop-color="#A18B3D"/>
</linearGradient>
<linearGradient id="paint3_linear_357_178" x1="131.901" y1="11.4672" x2="131.901" y2="39.3971" gradientUnits="userSpaceOnUse">
<stop stop-color="#A18B3D"/>
<stop offset="0.494792" stop-color="#D9BD69"/>
<stop offset="1" stop-color="#A18B3D"/>
</linearGradient>
<linearGradient id="paint4_linear_357_178" x1="131.901" y1="11.4672" x2="131.901" y2="39.3971" gradientUnits="userSpaceOnUse">
<stop stop-color="#A18B3D"/>
<stop offset="0.494792" stop-color="#D9BD69"/>
<stop offset="1" stop-color="#A18B3D"/>
</linearGradient>
<linearGradient id="paint5_linear_357_178" x1="131.901" y1="11.4672" x2="131.901" y2="39.3971" gradientUnits="userSpaceOnUse">
<stop stop-color="#A18B3D"/>
<stop offset="0.494792" stop-color="#D9BD69"/>
<stop offset="1" stop-color="#A18B3D"/>
</linearGradient>
<linearGradient id="paint6_linear_357_178" x1="131.901" y1="11.4672" x2="131.901" y2="39.3971" gradientUnits="userSpaceOnUse">
<stop stop-color="#A18B3D"/>
<stop offset="0.494792" stop-color="#D9BD69"/>
<stop offset="1" stop-color="#A18B3D"/>
</linearGradient>
<linearGradient id="paint7_linear_357_178" x1="30.8557" y1="11.4672" x2="30.8557" y2="39.3971" gradientUnits="userSpaceOnUse">
<stop stop-color="#A18B3D"/>
<stop offset="0.494792" stop-color="#D9BD69"/>
<stop offset="1" stop-color="#A18B3D"/>
</linearGradient>
<linearGradient id="paint8_linear_357_178" x1="30.8557" y1="11.4672" x2="30.8557" y2="39.3971" gradientUnits="userSpaceOnUse">
<stop stop-color="#A18B3D"/>
<stop offset="0.494792" stop-color="#D9BD69"/>
<stop offset="1" stop-color="#A18B3D"/>
</linearGradient>
<linearGradient id="paint9_linear_357_178" x1="30.8557" y1="11.4672" x2="30.8557" y2="39.3971" gradientUnits="userSpaceOnUse">
<stop stop-color="#A18B3D"/>
<stop offset="0.494792" stop-color="#D9BD69"/>
<stop offset="1" stop-color="#A18B3D"/>
</linearGradient>
<linearGradient id="paint10_linear_357_178" x1="30.8557" y1="11.4672" x2="30.8557" y2="39.3971" gradientUnits="userSpaceOnUse">
<stop stop-color="#A18B3D"/>
<stop offset="0.494792" stop-color="#D9BD69"/>
<stop offset="1" stop-color="#A18B3D"/>
</linearGradient>
</defs>
</svg>
