<svg width="222" height="218" viewBox="0 0 222 218" fill="none" xmlns="http://www.w3.org/2000/svg">
<path fill-rule="evenodd" clip-rule="evenodd" d="M1.62272 96.8185C1.32126 97.5057 0.12981 99.4553 0.0378192 99.8953C-0.107371 100.595 0.194093 101.151 0.456766 101.753C0.870171 102.703 0.833597 102.561 1.0475 103.504C2.24339 105.359 3.59554 110.141 4.99203 111.794C5.53844 111.399 5.81552 110.84 6.18126 110.322L9.47742 105.895C8.85122 108.397 7.95791 110.973 7.16102 113.488C6.53704 115.458 6.73875 115.527 7.6631 117.05C11.4447 123.275 12.2671 124.7 16.6583 130.355C16.7902 130.525 17.1481 131.017 17.229 131.092C17.8231 131.649 17.0772 131.315 17.9761 131.502C18.8284 129.818 21.9383 116.811 22.4903 115.829C23.071 114.796 25.4672 114.269 27.0311 113.904C33.5336 112.387 42.296 113.637 48.7465 115.769C49.4857 116.013 49.3594 115.902 49.7285 116.384C50.3802 117.318 51.7722 130.051 51.8819 131.969C53.1 131.698 53.8514 130.747 54.6738 130.035L59.1913 125.891C59.8685 125.148 60.6521 124.476 61.4169 123.789C68.5445 117.381 77.6051 110.304 85.0962 103.753C86.0837 102.89 89.3245 100.65 89.7157 99.5184C88.839 99.2192 88.0721 98.7293 87.2408 98.2804C81.994 95.4586 75.0559 93.5933 69.2682 92.1625C67.9471 92.0117 65.5099 91.9408 64.5268 91.2947C63.0184 91.4565 59.6557 91.0176 57.7982 90.9766C53.2463 90.8768 49.0391 91.2825 44.628 92.076C42.7782 92.4085 40.6867 93.1101 38.9977 93.3085L44.6413 87.1019C46.7415 85.2443 48.5935 83.3258 50.9742 81.5325C53.1266 79.9111 55.4663 78.1422 58.1296 76.7911C65.316 73.1436 68.7407 73.3664 76.3859 76.9274C90.3375 83.4255 92.0754 94.5919 93.2923 95.6493L97.9971 90.0278C99.1498 88.5216 110.293 71.4423 110.277 71.04C108.94 67.8392 107.448 64.7846 106.051 61.5483L95.6541 38.1749C95.1288 37.0344 94.0737 34.2824 93.5095 33.5764C90.6755 33.6174 80.4457 36.6343 77.4089 37.6273C72.8193 39.128 72.3449 38.7933 71.0083 41.1851C70.1438 42.7312 69.6683 42.4375 67.8019 42.9384C66.6748 43.241 65.102 43.7375 63.9848 43.8694C64.1943 43.6943 64.3539 43.4749 64.5634 43.2055L65.2406 42.1693C64.0092 42.4796 61.0179 43.8772 59.8076 44.4513C51.7866 48.2617 43.7247 52.725 36.525 57.9873C27.654 64.471 20.5928 70.6565 13.5029 79.3369C7.48244 86.7073 6.6789 88.5549 1.62272 96.8163V96.8185Z" fill="white"/>
<path fill-rule="evenodd" clip-rule="evenodd" d="M84.228 151.356L86.2207 150.15L86.1243 151.211C85.4937 153.567 85.8716 153.221 87.6161 155.676C92.3631 155.439 97.366 154.703 102.168 154.346C115.056 153.386 127.535 152.821 140.48 152.679C143.559 152.646 144.124 151.315 146.537 150.603L147.062 152.498C148.173 152.877 158.04 152.749 160.171 152.79C164.599 152.875 168.898 153.124 173.246 153.262C172.642 155.269 168.918 162.334 167.691 164.488C161.591 175.195 154.69 184.823 144.956 192.178C133.601 200.757 121.541 204.632 106.493 203.693C103.021 203.476 95.1871 202.252 92.4284 201.096C87.707 200.11 81.0659 197.128 77.1579 195.165C74.7895 193.975 72.646 192.82 70.4537 191.486L64.0686 187.402C65.0284 189.806 72.8732 196.999 74.9324 198.7L78.8437 201.745C78.8714 201.768 78.9479 201.898 78.9678 201.859C78.9878 201.82 79.0521 201.935 79.0909 201.975C79.9886 202.426 80.9019 203.147 81.793 203.746C91.6039 210.354 105.957 215.136 117.763 216.688C125.863 217.754 126.267 218.095 133.972 216.861C143.86 215.276 153.013 212.428 161.025 208.46C165.003 206.49 168.781 204.326 172.201 201.891C173.976 200.629 175.675 199.428 177.285 198.103C178.932 196.746 180.503 195.239 182.042 194.044C181.497 192.661 179.681 191.34 179.199 190.218C181.751 190.268 181.717 190.757 183.259 189.357L187.482 186.019C187.967 185.723 188.44 185.434 188.978 185.123C192.931 182.848 193.053 181.848 196.148 177.353C197.477 175.422 198.74 173.434 199.918 171.384C203.444 165.255 210.382 150.925 211.917 143.694L209.023 146.728C208.491 147.418 208.258 147.546 207.67 148.186C207.043 148.87 207.085 149.187 206.256 149.671L210.19 142.27C213 136.964 212.929 140.742 214.281 135.304C215.793 129.225 217.001 122.704 217.614 116.197L177.854 126.613C176.917 127.034 175.67 129.624 174.674 130.517C174.191 130.097 173.13 129.187 172.915 128.514L172.765 127.787C172.761 127.711 172.748 127.681 172.725 127.632C165.342 129.248 157.029 130.499 149.134 131.426C145.069 131.904 140.697 132.397 136.574 132.574C135.277 132.63 131.213 132.565 130.385 133.032C129.973 133.265 130.237 133.3 129.305 133.654C128.862 133.821 128.447 133.95 128.019 134.104C127.111 134.432 126.374 134.739 125.451 134.918L125.443 133.015C123.235 132.521 111.297 132.804 108.013 131.297C107.859 130.81 108.033 130.707 108.401 130.095C108.654 129.674 108.905 129.289 109.152 128.886L113.512 121.985C117.794 115.662 121.673 110.408 126.644 104.82C127.34 104.037 127.624 103.587 128.469 102.755C131.888 99.3821 130.976 95.6138 131.259 94.3016C133.272 94.9754 132.601 95.2082 134.578 94.1431C136.925 92.8796 138.732 92.3243 140.617 90.6618C145.096 86.7118 148.664 83.9088 153.427 80.3123C155.336 78.8715 157.064 77.731 159.031 76.3966L170.502 69.2446C172.379 68.1728 174.531 67.1077 176.592 65.985L176.125 61.9839C183.084 62.8506 182.837 62.6899 188.293 60.4245C198.503 56.1863 205.196 53.7269 215.976 51.0835C217.689 50.6635 220.385 50.3133 222.001 49.7669C219.665 47.773 212.112 47.026 208.424 46.8741C199.306 46.5006 187.505 48.4103 178.571 50.2157C174.206 51.098 169.075 52.1697 165.108 53.4288C159.41 55.2376 148.064 61.371 142.848 64.5419C125.508 75.0832 110.929 87.3335 96.5481 101.348C95.0652 102.794 93.8006 104.112 92.3597 105.598C88.372 109.71 82.9922 115.372 79.3391 119.63L68.8743 132.11C65.2568 136.416 61.5195 141.763 58.271 146.127C52.112 145.461 43.4106 141.906 39.4705 139.046C38.5949 138.6 37.808 138.01 37.0277 137.478C36.3727 137.03 35.6667 136.338 34.8765 136.05L34.8354 141.38C35.7265 147.442 36.294 151.67 38.8542 156.643C40.7428 160.312 44.4069 165.122 49.2259 165.919C48.2129 161.949 49.0697 161.681 53.4509 160.857L70.9879 157.825C72.5772 157.585 79.1297 156.884 79.9908 156.527C80.4896 156.257 80.4685 156.114 80.852 155.12C82.0401 152.041 81.7121 153.474 84.2291 151.358L84.228 151.356Z" fill="white"/>
<path fill-rule="evenodd" clip-rule="evenodd" d="M118.876 44.6931L114.2 50.6259C114.177 50.6581 114.129 50.7268 114.111 50.7534C114.093 50.7789 114.047 50.8354 114.023 50.8808L111.991 52.9456C111.218 53.7614 110.936 54.5705 110.549 55.9525C111.698 56.7284 112.274 57.5064 114.287 57.8766C121.024 59.1434 133.271 49.6994 138.653 44.5401C139.15 44.0646 139.217 43.9106 139.75 43.4817C141.203 42.3124 142.509 40.8782 143.864 39.5837C145.307 38.206 146.503 37.039 147.875 35.586L151.318 32.1036C153.41 29.9468 153.372 29.8559 155.955 27.6503L157.94 25.7396C161.724 22.6718 164.735 19.7269 169.152 16.8242C173.37 14.0512 185.288 6.68971 192.419 8.72792C193.667 8.85427 192.858 8.85427 193.063 8.49184C191.659 7.07097 191.353 6.26189 189.228 4.7579C178.919 -2.54153 166.925 2.84049 158.166 9.51483L154.93 12.1305C154.561 12.4319 154.28 12.7046 153.883 13.0249C153.024 13.7154 152.714 14.1177 151.895 14.9168C148.189 18.5311 143.663 23.5717 140.461 26.6562C139.403 27.6747 137.573 29.5024 136.602 30.583C135.991 31.2635 135.405 31.7135 134.77 32.4317C134.137 33.1476 133.538 33.7295 132.861 34.4222C131.521 35.7932 130.282 36.9858 128.984 38.3368L121.129 46.0895C120.872 46.2358 121.06 46.1139 120.76 46.3578C120.564 46.5185 120.57 46.5573 120.337 46.7357L127.523 35.1526C133.35 25.1644 136.364 13.9814 144.441 7.25828C146.944 5.17352 149.547 4.33895 153.079 4.01532C153.029 3.97874 152.712 3.6529 152.402 3.4268C149.617 1.06052 149.782 0.454271 145.443 0.484196C140.586 0.518554 135.323 6.08234 134.477 9.64228C129.558 30.338 119.308 43.4473 118.878 44.6897L118.876 44.6931Z" fill="white"/>
</svg>
