<svg width="30" height="30" viewBox="0 0 30 30" fill="none" xmlns="http://www.w3.org/2000/svg">
<g clip-path="url(#clip0_141_5490)">
<path d="M12.1875 30C11.8912 30.0015 11.6016 29.9126 11.3572 29.7451C11.1128 29.5775 10.9254 29.3394 10.8199 29.0625L8.48557 22.9922C8.43829 22.8699 8.36597 22.7588 8.27324 22.6661C8.18051 22.5733 8.06942 22.501 7.94709 22.4537L1.87502 20.1176C1.59843 20.0114 1.36052 19.8239 1.19271 19.5798C1.02489 19.3356 0.935059 19.0463 0.935059 18.75C0.935059 18.4538 1.02489 18.1645 1.19271 17.9203C1.36052 17.6761 1.59843 17.4886 1.87502 17.3824L7.94534 15.0481C8.06766 15.0008 8.17875 14.9285 8.27148 14.8357C8.36421 14.743 8.43653 14.6319 8.48381 14.5096L10.8199 8.43752C10.9261 8.16093 11.1136 7.92302 11.3578 7.75521C11.602 7.58739 11.8913 7.49756 12.1875 7.49756C12.4838 7.49756 12.7731 7.58739 13.0173 7.75521C13.2614 7.92302 13.4489 8.16093 13.5551 8.43752L15.8895 14.5078C15.9368 14.6302 16.0091 14.7412 16.1018 14.834C16.1945 14.9267 16.3056 14.999 16.428 15.0463L22.4631 17.3684C22.751 17.4751 22.999 17.6679 23.1733 17.9206C23.3477 18.1732 23.4399 18.4735 23.4375 18.7805C23.4331 19.0716 23.3413 19.3547 23.1742 19.5931C23.007 19.8314 22.7722 20.0142 22.5 20.1176L16.4297 22.452C16.3074 22.4993 16.1963 22.5716 16.1036 22.6643C16.0108 22.757 15.9385 22.8681 15.8912 22.9905L13.5551 29.0625C13.4497 29.3394 13.2622 29.5775 13.0179 29.7451C12.7735 29.9126 12.4838 30.0015 12.1875 30Z" fill="white"/>
<path d="M5.15614 10.3126C4.98244 10.3126 4.81282 10.26 4.66963 10.1617C4.52644 10.0634 4.41639 9.92397 4.35399 9.76186L3.3661 7.19311C3.34469 7.13693 3.31164 7.08591 3.26913 7.0434C3.22662 7.00089 3.1756 6.96784 3.11942 6.94643L0.550671 5.95854C0.388588 5.89613 0.249216 5.78607 0.150916 5.64288C0.0526159 5.49969 0 5.33008 0 5.15639C0 4.98271 0.0526159 4.8131 0.150916 4.66991C0.249216 4.52671 0.388588 4.41666 0.550671 4.35424L3.11942 3.36635C3.17554 3.34485 3.22651 3.31177 3.26901 3.26927C3.31151 3.22677 3.34459 3.1758 3.3661 3.11967L4.3452 0.573776C4.40042 0.423895 4.49544 0.291894 4.62004 0.191961C4.74465 0.0920281 4.89413 0.0279413 5.05243 0.00658844C5.24248 -0.016515 5.4348 0.0244881 5.5989 0.123096C5.76299 0.221704 5.88948 0.372272 5.95829 0.550924L6.94618 3.11967C6.96769 3.1758 7.00077 3.22677 7.04327 3.26927C7.08577 3.31177 7.13673 3.34485 7.19286 3.36635L9.76161 4.35424C9.92369 4.41666 10.0631 4.52671 10.1614 4.66991C10.2597 4.8131 10.3123 4.98271 10.3123 5.15639C10.3123 5.33008 10.2597 5.49969 10.1614 5.64288C10.0631 5.78607 9.92369 5.89613 9.76161 5.95854L7.19286 6.94643C7.13668 6.96784 7.08566 7.00089 7.04315 7.0434C7.00064 7.08591 6.96759 7.13693 6.94618 7.19311L5.95829 9.76186C5.89589 9.92397 5.78584 10.0634 5.64265 10.1617C5.49946 10.26 5.32984 10.3126 5.15614 10.3126Z" fill="white"/>
<path d="M23.4377 15C23.2482 14.9999 23.0632 14.9424 22.907 14.8351C22.7509 14.7278 22.6309 14.5757 22.5629 14.3988L21.2246 10.9201C21.2011 10.8588 21.1649 10.8031 21.1185 10.7567C21.0721 10.7103 21.0164 10.6741 20.9551 10.6506L17.4764 9.31229C17.2997 9.24419 17.1477 9.12416 17.0405 8.968C16.9333 8.81184 16.876 8.62688 16.876 8.43748C16.876 8.24808 16.9333 8.06313 17.0405 7.90697C17.1477 7.75081 17.2997 7.63078 17.4764 7.56268L20.9551 6.2244C21.0164 6.20086 21.0721 6.1647 21.1185 6.11827C21.1649 6.07183 21.2011 6.01617 21.2246 5.95487L22.553 2.50077C22.6136 2.33742 22.7174 2.19358 22.8533 2.08452C22.9891 1.97546 23.152 1.90528 23.3246 1.88143C23.532 1.85632 23.7419 1.90121 23.9208 2.00895C24.0998 2.1167 24.2377 2.28113 24.3125 2.47616L25.6508 5.95487C25.6744 6.01617 25.7105 6.07183 25.7569 6.11827C25.8034 6.1647 25.859 6.20086 25.9203 6.2244L29.3991 7.56268C29.5758 7.63078 29.7277 7.75081 29.8349 7.90697C29.9421 8.06313 29.9995 8.24808 29.9995 8.43748C29.9995 8.62688 29.9421 8.81184 29.8349 8.968C29.7277 9.12416 29.5758 9.24419 29.3991 9.31229L25.9203 10.6506C25.859 10.6741 25.8034 10.7103 25.7569 10.7567C25.7105 10.8031 25.6744 10.8588 25.6508 10.9201L24.3125 14.3988C24.2445 14.5757 24.1246 14.7278 23.9684 14.8351C23.8122 14.9424 23.6272 14.9999 23.4377 15Z" fill="white"/>
</g>
<defs>
<clipPath id="clip0_141_5490">
<rect width="30" height="30" fill="white"/>
</clipPath>
</defs>
</svg>
